<?xml version="1.0" encoding="UTF-8" standalone="no"?>
<!-- Created with Inkscape (http://www.inkscape.org/) -->

<svg
   width="500"
   height="100"
   viewBox="0 0 132.29173 26.458334"
   version="1.1"
   id="svg5"
   xml:space="preserve"
   inkscape:version="1.2 (dc2aeda, 2022-05-15)"
   sodipodi:docname="dibujo.svg"
   xmlns:inkscape="http://www.inkscape.org/namespaces/inkscape"
   xmlns:sodipodi="http://sodipodi.sourceforge.net/DTD/sodipodi-0.dtd"
   xmlns="http://www.w3.org/2000/svg"
   xmlns:svg="http://www.w3.org/2000/svg"><sodipodi:namedview
     id="namedview7"
     pagecolor="#ffffff"
     bordercolor="#000000"
     borderopacity="0.25"
     inkscape:showpageshadow="2"
     inkscape:pageopacity="0.0"
     inkscape:pagecheckerboard="0"
     inkscape:deskcolor="#d1d1d1"
     inkscape:document-units="mm"
     showgrid="false"
     inkscape:zoom="0.52665972"
     inkscape:cx="543.04513"
     inkscape:cy="346.52356"
     inkscape:window-width="1440"
     inkscape:window-height="783"
     inkscape:window-x="0"
     inkscape:window-y="25"
     inkscape:window-maximized="1"
     inkscape:current-layer="surface1"><inkscape:grid
       type="xygrid"
       id="grid239"
       originx="0"
       originy="0" /></sodipodi:namedview><defs
     id="defs2"><g
       id="g896" /></defs><g
     inkscape:label="Capa 1"
     inkscape:groupmode="layer"
     id="layer1"><g
       xml:id="surface1"
       id="surface1"
       transform="matrix(0.35277778,0,0,0.35277778,2.5733908,-57.607713)"><g
         transform="translate(-3.9846879,-0.17298952)"
         style="fill:#515151;fill-opacity:1"
         id="g910"><g
           transform="translate(77.254395,216.90125)"
           id="g908"><path
             style="stroke:none"
             d="M 16.058594,-33.640625 H 4.097656 V 0 h 11.960938 c 10.910156,0 16.390625,-8.289062 16.390625,-16.628906 0,-8.339844 -5.480469,-17.011719 -16.390625,-17.011719 z m 0,28.828125 H 8.910156 v -24.015625 h 7.148438 c 7.71875,0 11.625,6.289063 11.625,12.199219 0,5.90625 -3.90625,11.816406 -11.625,11.816406 z m 0,0"
             id="path906"
             inkscape:connector-curvature="0" /></g></g><g
         transform="translate(-3.9846879,-0.17298952)"
         style="fill:#515151;fill-opacity:1"
         id="g916"><g
           transform="translate(111.79873,216.90125)"
           id="g914"><path
             style="stroke:none"
             d="m 16.007812,0.332031 c 5.71875,0 12.296876,-3.523437 12.296876,-10.289062 V -33.6875 h -4.863282 v 23.679688 c 0,3.671874 -3.953125,5.527343 -7.433594,5.527343 -3.523437,0 -7.480468,-1.808593 -7.480468,-5.476562 V -33.6875 H 3.667969 v 23.679688 c 0,6.816406 6.480469,10.339843 12.339843,10.339843 z m 0,0"
             id="path912"
             inkscape:connector-curvature="0" /></g></g><g
         transform="translate(-3.9846879,-0.17298952)"
         style="fill:#515151;fill-opacity:1"
         id="g922"><g
           transform="translate(143.77011,216.90125)"
           id="g920"><path
             style="stroke:none"
             d="m 29.683594,-21.632812 h 5.242187 C 33.117188,-30.683594 25.253906,-33.878906 18.726562,-33.878906 9.339844,-33.878906 2,-26.683594 2,-16.628906 2,-6.625 9.195312,0.570312 18.726562,0.570312 c 6.191407,0 13.148438,-4.523437 15.484376,-11.003906 v 0.04687 c 0.476562,-1.144531 0.714843,-3.050781 0.953124,-5.910156 h -18.34375 v 4.910156 h 12.578126 c -2,4.953125 -6.480469,7.242188 -10.671876,7.242188 -6.671874,0 -11.816406,-5.289063 -11.816406,-12.484375 0,-7.148438 5.144532,-12.339844 11.816406,-12.339844 4.335938,0 9.578126,1.855469 10.957032,7.335938 z m 0,0"
             id="path918"
             inkscape:connector-curvature="0" /></g></g><g
         transform="translate(-3.9846879,-0.17298952)"
         style="fill:#515151;fill-opacity:1"
         id="g928"><g
           transform="translate(181.45917,216.90125)"
           id="g926"><path
             style="stroke:none"
             d="M 24.445312,-4.8125 H 8.957031 v -9.816406 H 24.0625 v -4.859375 H 8.957031 V -28.875 h 15.4375 v -4.8125 H 4.097656 V 0 h 20.347656 z m 0,0"
             id="path924"
             inkscape:connector-curvature="0" /></g></g><g
         transform="translate(-3.9846879,-0.17298952)"
         style="fill:#515151;fill-opacity:1"
         id="g934"><g
           transform="translate(208.0464,216.90125)"
           id="g932"><path
             style="stroke:none"
             d="m 20.773438,-24.730469 4.765624,-0.1875 C 24.683594,-31.019531 19.34375,-33.6875 14.199219,-33.6875 c -3.859375,0 -7.863281,1.523438 -10.101563,4.429688 -1.238281,1.621093 -1.859375,3.527343 -1.859375,5.527343 0,0.238281 0.046875,0.527344 0.046875,0.8125 v -0.04687 c 0.527344,6.957032 6.625,8.097656 11.820313,8.621094 3.332031,0.335938 6.765625,0.765625 7.335937,3.289062 0.09375,0.429688 0.144532,0.808594 0.144532,1.144532 0,3.429687 -3.910157,5.429687 -7.480469,5.429687 -3.097657,0 -6.863281,-1.617187 -7.195313,-4.714843 v 0.191406 L 6.859375,-9.71875 2,-9.625 2.050781,-8.71875 c 0.617188,5.957031 6.859375,9.003906 12.003907,9.003906 6.003906,0 12.390624,-3.714844 12.390624,-10.148437 0,-0.667969 -0.09766,-1.476563 -0.238281,-2.191407 -1.289062,-5.335937 -6.957031,-6.527343 -11.53125,-7.101562 -3.714843,-0.332031 -7.578125,-0.808594 -7.578125,-4.667969 0,-0.953125 0.238282,-1.90625 0.8125,-2.621093 1.382813,-1.761719 3.90625,-2.523438 6.195313,-2.523438 2.855469,0 6.003906,1.285156 6.667969,4.238281 z m 0,0"
             id="path930"
             inkscape:connector-curvature="0" /></g></g><g
         transform="translate(-3.9846879,-0.17298952)"
         style="fill:#515151;fill-opacity:1"
         id="g940"><g
           transform="translate(236.39658,216.90125)"
           id="g938"><path
             style="stroke:none"
             d="M 10.386719,-29.113281 V 0 h 4.8125 V -29.113281 H 25.253906 V -33.6875 H 0.285156 v 4.574219 z m 0,0"
             id="path936"
             inkscape:connector-curvature="0" /></g></g><g
         transform="translate(-3.9846879,-0.17298952)"
         style="fill:#515151;fill-opacity:1"
         id="g946"><g
           transform="translate(261.98322,216.90125)"
           id="g944"><path
             style="stroke:none"
             d="m 15.105469,-29.207031 h 6.191406 v -4.433594 H 4.097656 v 4.433594 h 6.195313 V -4.480469 H 4.097656 V 0 h 17.199219 v -4.480469 h -6.191406 z m 0,0"
             id="path942"
             inkscape:connector-curvature="0" /></g></g><g
         transform="translate(-3.9846879,-0.17298952)"
         style="fill:#515151;fill-opacity:1"
         id="g952"><g
           transform="translate(287.33161,216.90125)"
           id="g950"><path
             style="stroke:none"
             d="m 1.667969,-16.675781 c 0,9.625 7.671875,17.296875 17.296875,17.296875 9.625,0 17.34375,-7.671875 17.34375,-17.296875 0,-9.625 -7.71875,-17.34375 -17.34375,-17.34375 -9.625,0 -17.296875,7.71875 -17.296875,17.34375 z m 4.957031,0 c 0,-6.863281 5.476562,-12.390625 12.339844,-12.390625 6.859375,0 12.386718,5.527344 12.386718,12.390625 0,6.859375 -5.527343,12.339843 -12.386718,12.339843 -6.863282,0 -12.339844,-5.480468 -12.339844,-12.339843 z m 0,0"
             id="path948"
             inkscape:connector-curvature="0" /></g></g><g
         transform="translate(-3.9846879,-0.17298952)"
         style="fill:#515151;fill-opacity:1"
         id="g958"><g
           transform="translate(325.64009,216.90125)"
           id="g956"><path
             style="stroke:none"
             d="M 4.097656,-33.355469 V 0 h 4.8125 V -23.300781 L 25.015625,0 h 3.8125 V -33.355469 H 24.0625 v 23.492188 l -16.25,-23.492188 z m 0,0"
             id="path954"
             inkscape:connector-curvature="0" /></g></g><path
         style="fill:#5170ff;fill-opacity:1;fill-rule:nonzero;stroke:none;stroke-width:1"
         d="M 68.288752,167.61218 H 9.5075022 c -1.9336,0 -3.4921901,1.55468 -3.4921901,3.49218 v 58.78125 c 0,1.9375 1.5585901,3.49219 3.4921901,3.49219 H 68.288752 c 1.9375,0 3.49219,-1.55469 3.49219,-3.49219 v -58.78125 c 0,-1.9375 -1.55469,-3.49218 -3.49219,-3.49218 z m 0,0"
         id="path960"
         inkscape:connector-curvature="0" /><path
         style="fill:#ffffff;fill-opacity:1;fill-rule:nonzero;stroke:none;stroke-width:1"
         d="m 47.577812,205.86999 v -8.70313 c 0,-0.86328 -0.69531,-1.55859 -1.55859,-1.55859 h -8.70313 c -0.86328,0 -1.55859,0.69531 -1.55859,1.55859 v 8.70313 c 0,0.86328 0.69531,1.55469 1.55859,1.55469 h 8.70313 c 0.86328,0 1.55859,-0.69141 1.55859,-1.55469 z m 0,0"
         id="path962"
         inkscape:connector-curvature="0" /><path
         style="fill:#ffffff;fill-opacity:1;fill-rule:nonzero;stroke:none;stroke-width:1"
         d="m 34.499692,181.13171 h -8.69922 c -0.86328,0 -1.5586,0.70703 -1.5586,1.58203 v 37.93359 c 0,0.87891 0.69532,1.58203 1.5586,1.58203 h 8.69922 c 0.86328,0 1.55859,-0.70312 1.55859,-1.58203 v -37.93359 c 0,-0.875 -0.69531,-1.58203 -1.55859,-1.58203 z m 0,0"
         id="path964"
         inkscape:connector-curvature="0" /><path
         style="fill:#ffffff;fill-opacity:1;fill-rule:nonzero;stroke:none;stroke-width:1"
         d="m 56.624692,187.96374 v -8.69922 c 0,-0.86328 -0.69532,-1.55859 -1.5625,-1.55859 h -14.85157 c -0.86718,0 -1.5664,0.69531 -1.5664,1.55859 v 8.69922 c 0,0.86328 0.69922,1.55859 1.5664,1.55859 h 14.85157 c 0.86718,0 1.5625,-0.69531 1.5625,-1.55859 z m 0,0"
         id="path966"
         inkscape:connector-curvature="0" /><path
         style="fill:#ffffff;fill-opacity:1;fill-rule:nonzero;stroke:none;stroke-width:1"
         d="m 56.624692,223.39343 v -8.69922 c 0,-0.86328 -0.69532,-1.5586 -1.5625,-1.5586 h -14.85157 c -0.86718,0 -1.5664,0.69532 -1.5664,1.5586 v 8.69922 c 0,0.86328 0.69922,1.55859 1.5664,1.55859 h 14.85157 c 0.86718,0 1.5625,-0.69531 1.5625,-1.55859 z m 0,0"
         id="path968"
         inkscape:connector-curvature="0" /></g></g></svg>
