<svg xmlns="http://www.w3.org/2000/svg" xmlns:xlink="http://www.w3.org/1999/xlink" width="150" zoomAndPan="magnify" viewBox="0 0 112.5 112.499997" height="150" preserveAspectRatio="xMidYMid meet" version="1.0"><defs><g/><clipPath id="5a899b15f1"><path d="M 99.164062 50.425781 L 103.335938 50.425781 L 103.335938 54.597656 L 99.164062 54.597656 Z M 99.164062 50.425781 " clip-rule="nonzero"/></clipPath><clipPath id="ada0113502"><path d="M 101.25 50.425781 C 100.097656 50.425781 99.164062 51.359375 99.164062 52.511719 C 99.164062 53.664062 100.097656 54.597656 101.25 54.597656 C 102.402344 54.597656 103.335938 53.664062 103.335938 52.511719 C 103.335938 51.359375 102.402344 50.425781 101.25 50.425781 " clip-rule="nonzero"/></clipPath><clipPath id="31ce4a305a"><path d="M 9.164062 56.25 L 13.335938 56.25 L 13.335938 60.425781 L 9.164062 60.425781 Z M 9.164062 56.25 " clip-rule="nonzero"/></clipPath><clipPath id="98e6dc3d5f"><path d="M 11.25 56.25 C 10.097656 56.25 9.164062 57.183594 9.164062 58.335938 C 9.164062 59.488281 10.097656 60.425781 11.25 60.425781 C 12.402344 60.425781 13.335938 59.488281 13.335938 58.335938 C 13.335938 57.183594 12.402344 56.25 11.25 56.25 " clip-rule="nonzero"/></clipPath></defs><g fill="#ffffff" fill-opacity="1"><g transform="translate(13.78125, 63.749997)"><g><path d="M 14.523438 -3.691406 L 6.113281 -3.691406 L 6.113281 -7.167969 L 13.175781 -7.167969 C 13.785156 -7.167969 13.941406 -7.457031 13.941406 -7.933594 L 13.941406 -9.988281 C 13.941406 -10.464844 13.785156 -10.753906 13.175781 -10.753906 L 6.113281 -10.753906 L 6.113281 -13.625 L 14.074219 -13.625 C 14.679688 -13.625 14.835938 -13.914062 14.835938 -14.390625 L 14.835938 -16.578125 C 14.835938 -17.050781 14.679688 -17.339844 14.074219 -17.339844 L 2.714844 -17.339844 C 2.109375 -17.339844 1.949219 -17.050781 1.949219 -16.578125 L 1.949219 -0.765625 C 1.949219 -0.289062 2.109375 0 2.714844 0 L 14.523438 0 C 15.128906 0 15.285156 -0.289062 15.285156 -0.765625 L 15.285156 -2.925781 C 15.285156 -3.398438 15.128906 -3.691406 14.523438 -3.691406 Z M 14.523438 -3.691406 "/></g></g></g><g fill="#ffffff" fill-opacity="1"><g transform="translate(30.298793, 63.749997)"><g><path d="M 8.617188 -17.339844 L 2.714844 -17.339844 C 2.109375 -17.339844 1.949219 -17.050781 1.949219 -16.578125 L 1.949219 -0.765625 C 1.949219 -0.289062 2.109375 0 2.714844 0 L 8.617188 0 C 11.753906 0 15.707031 -1.792969 15.707031 -5.929688 L 15.707031 -11.410156 C 15.707031 -15.523438 11.753906 -17.339844 8.617188 -17.339844 Z M 11.570312 -11.042969 L 11.570312 -6.300781 C 11.570312 -4.613281 10.359375 -3.664062 8.617188 -3.664062 L 6.089844 -3.664062 L 6.089844 -13.679688 L 8.617188 -13.679688 C 10.359375 -13.679688 11.570312 -12.703125 11.570312 -11.042969 Z M 11.570312 -11.042969 "/></g></g></g><g fill="#ffffff" fill-opacity="1"><g transform="translate(47.422242, 63.749997)"><g><path d="M 14.917969 -17.339844 L 12.308594 -17.339844 C 11.832031 -17.339844 11.542969 -17.183594 11.542969 -16.578125 L 11.542969 -5.878906 C 11.542969 -4.21875 10.4375 -3.269531 8.695312 -3.269531 C 6.957031 -3.269531 5.878906 -4.21875 5.878906 -5.878906 L 5.878906 -16.578125 C 5.878906 -17.183594 5.585938 -17.339844 5.113281 -17.339844 L 2.503906 -17.339844 C 2.03125 -17.339844 1.738281 -17.183594 1.738281 -16.578125 L 1.738281 -5.296875 C 1.738281 -1.160156 5.5625 0.394531 8.695312 0.394531 C 11.832031 0.394531 15.679688 -1.160156 15.679688 -5.296875 L 15.679688 -16.578125 C 15.679688 -17.183594 15.390625 -17.339844 14.917969 -17.339844 Z M 14.917969 -17.339844 "/></g></g></g><g fill="#ffffff" fill-opacity="1"><g transform="translate(64.835467, 63.749997)"><g><path d="M 15.3125 -5.140625 C 15.3125 -5.773438 15.101562 -6.035156 14.523438 -6.035156 L 11.9375 -6.035156 C 11.359375 -6.035156 11.304688 -5.613281 11.226562 -5.085938 C 11.015625 -3.820312 9.882812 -3.292969 8.460938 -3.292969 C 6.71875 -3.292969 5.535156 -4.242188 5.535156 -5.929688 L 5.535156 -11.410156 C 5.535156 -13.070312 6.71875 -14.046875 8.460938 -14.046875 C 9.882812 -14.046875 10.621094 -13.652344 11.175781 -12.78125 C 11.386719 -12.464844 11.410156 -11.964844 11.964844 -11.964844 L 14.496094 -11.964844 C 15.101562 -11.964844 15.3125 -12.097656 15.3125 -12.730469 C 14.96875 -16.078125 11.726562 -17.738281 8.460938 -17.738281 C 5.324219 -17.738281 1.398438 -15.917969 1.398438 -11.78125 L 1.398438 -5.5625 C 1.398438 -1.421875 5.324219 0.394531 8.460938 0.394531 C 11.726562 0.394531 15.3125 -1.738281 15.3125 -5.140625 Z M 15.3125 -5.140625 "/></g></g></g><g fill="#ffffff" fill-opacity="1"><g transform="translate(81.484719, 63.749997)"><g><path d="M 16.394531 -17.339844 L 12.835938 -17.339844 C 12.230469 -17.339844 12.042969 -17.289062 11.515625 -16.710938 L 6.0625 -10.699219 L 6.0625 -16.578125 C 6.0625 -17.183594 5.773438 -17.339844 5.324219 -17.339844 L 2.714844 -17.339844 C 2.214844 -17.339844 1.949219 -17.183594 1.949219 -16.578125 L 1.949219 -0.765625 C 1.949219 -0.15625 2.214844 0 2.714844 0 L 5.324219 0 C 5.773438 0 6.0625 -0.15625 6.0625 -0.765625 L 6.0625 -5.457031 L 7.695312 -7.167969 C 9.117188 -4.796875 11.464844 -0.84375 11.464844 -0.84375 C 11.808594 -0.289062 12.148438 0 12.78125 0 L 15.996094 0 C 16.5 0 16.605469 -0.5 16.394531 -0.84375 L 10.726562 -10.171875 L 16.65625 -16.605469 C 16.894531 -16.839844 16.894531 -17.339844 16.394531 -17.339844 Z M 16.394531 -17.339844 "/></g></g></g><g clip-path="url(#5a899b15f1)"><g clip-path="url(#ada0113502)"><path fill="#ffffff" d="M 99.164062 50.425781 L 103.335938 50.425781 L 103.335938 54.597656 L 99.164062 54.597656 Z M 99.164062 50.425781 " fill-opacity="1" fill-rule="nonzero"/></g></g><g clip-path="url(#31ce4a305a)"><g clip-path="url(#98e6dc3d5f)"><path fill="#ffffff" d="M 9.164062 56.25 L 13.335938 56.25 L 13.335938 60.425781 L 9.164062 60.425781 Z M 9.164062 56.25 " fill-opacity="1" fill-rule="nonzero"/></g></g></svg>